<svg width="26" height="26" viewBox="0 0 26 26" fill="none" xmlns="http://www.w3.org/2000/svg">
<g id="iconoir:cash">
<g id="Group">
<path id="Vector" d="M2.16666 18.4167V7.58334C2.16666 7.0087 2.39493 6.4576 2.80126 6.05127C3.20759 5.64494 3.75869 5.41667 4.33332 5.41667H21.6667C22.2413 5.41667 22.7924 5.64494 23.1987 6.05127C23.605 6.4576 23.8333 7.0087 23.8333 7.58334V18.4167C23.8333 18.9913 23.605 19.5424 23.1987 19.9487C22.7924 20.3551 22.2413 20.5833 21.6667 20.5833H4.33332C3.75869 20.5833 3.20759 20.3551 2.80126 19.9487C2.39493 19.5424 2.16666 18.9913 2.16666 18.4167Z" stroke="#010B2E" stroke-width="1.5" stroke-linecap="round" stroke-linejoin="round"/>
<path id="Vector_2" d="M20.0416 13.0108L20.0525 12.9989M5.95831 13.0108L5.96915 12.9989M13 16.25C12.138 16.25 11.3114 15.9076 10.7019 15.2981C10.0924 14.6886 9.74998 13.862 9.74998 13C9.74998 12.138 10.0924 11.3114 10.7019 10.7019C11.3114 10.0924 12.138 9.75 13 9.75C13.8619 9.75 14.6886 10.0924 15.2981 10.7019C15.9076 11.3114 16.25 12.138 16.25 13C16.25 13.862 15.9076 14.6886 15.2981 15.2981C14.6886 15.9076 13.8619 16.25 13 16.25Z" stroke="#010B2E" stroke-width="1.5" stroke-linecap="round" stroke-linejoin="round"/>
</g>
</g>
</svg>
