<svg width="23" height="14" viewBox="0 0 23 14" fill="none" xmlns="http://www.w3.org/2000/svg">
<g id="Mastercard">
<path id="Left" fill-rule="evenodd" clip-rule="evenodd" d="M11.75 12.1762C10.5584 13.2045 9.01277 13.8253 7.32377 13.8253C3.55511 13.8253 0.5 10.7347 0.5 6.9223C0.5 3.10988 3.55511 0.0193119 7.32377 0.0193119C9.01277 0.0193119 10.5584 0.640071 11.75 1.66836C12.9416 0.640071 14.4873 0.0193119 16.1763 0.0193119C19.9449 0.0193119 23 3.10988 23 6.9223C23 10.7347 19.9449 13.8253 16.1763 13.8253C14.4873 13.8253 12.9416 13.2045 11.75 12.1762Z" fill="#ED0006"/>
<path id="Right" fill-rule="evenodd" clip-rule="evenodd" d="M11.75 12.1762C13.2172 10.9101 14.1475 9.02611 14.1475 6.9223C14.1475 4.81849 13.2172 2.93449 11.75 1.66836C12.9415 0.640069 14.4872 0.0193119 16.1762 0.0193119C19.9449 0.0193119 23 3.10988 23 6.9223C23 10.7347 19.9449 13.8253 16.1762 13.8253C14.4872 13.8253 12.9415 13.2045 11.75 12.1762Z" fill="#F9A000"/>
<path id="Middle" fill-rule="evenodd" clip-rule="evenodd" d="M11.75 12.1763C13.2172 10.9101 14.1476 9.02612 14.1476 6.92231C14.1476 4.8185 13.2172 2.93451 11.75 1.66838C10.2828 2.93451 9.35251 4.8185 9.35251 6.92231C9.35251 9.02612 10.2828 10.9101 11.75 12.1763Z" fill="#FF5E00"/>
</g>
</svg>
